<?xml version="1.0" encoding="UTF-8" standalone="no"?>
<svg
   width="63.323746"
   height="61.967449"
   viewBox="-1 -3 24.537951 23.237793"
   fill="none"
   stroke="currentColor"
   stroke-width="2"
   stroke-linecap="round"
   stroke-linejoin="round"
   version="1.1"
   id="svg5"
   sodipodi:docname="sms-multi.svg"
   inkscape:version="1.4.2 (ebf0e940d0, 2025-05-08)"
   xmlns:inkscape="http://www.inkscape.org/namespaces/inkscape"
   xmlns:sodipodi="http://sodipodi.sourceforge.net/DTD/sodipodi-0.dtd"
   xmlns="http://www.w3.org/2000/svg"
   xmlns:svg="http://www.w3.org/2000/svg">
  <defs
     id="defs5" />
  <sodipodi:namedview
     id="namedview5"
     pagecolor="#ffffff"
     bordercolor="#000000"
     borderopacity="0.25"
     inkscape:showpageshadow="2"
     inkscape:pageopacity="0.0"
     inkscape:pagecheckerboard="0"
     inkscape:deskcolor="#d1d1d1"
     inkscape:zoom="8.48125"
     inkscape:cx="3.9498895"
     inkscape:cy="34.959469"
     inkscape:window-width="1440"
     inkscape:window-height="2488"
     inkscape:window-x="0"
     inkscape:window-y="0"
     inkscape:window-maximized="1"
     inkscape:current-layer="svg5" />
  <!-- Background bubble: original path translated +6 right, -6 up; no text lines -->
  <path
     d="m 22.537951,9.5499996 a 2,2 0 0 1 -2,2.0000004 h -12 l -3.9999996,4 V -0.45000003 a 2,2 0 0 1 2,-1.99999997 H 20.537951 a 2,2 0 0 1 2,1.99999997 z"
     fill="#ffffff"
     stroke="currentColor"
     id="path1" />
  <!-- Foreground bubble: original -->
  <path
     d="m 18,13.562528 a 2,2 0 0 1 -2,2 H 4 l -4,4 V 3.5625276 a 2,2 0 0 1 2,-2 h 14 a 2,2 0 0 1 2,2 z"
     fill="#ffffff"
     stroke="currentColor"
     id="path2" />
  <!-- Text lines on foreground bubble only -->
  <path
     d="m 5,5.5625276 h 8"
     id="path3" />
  <path
     d="m 5,8.5625276 h 8"
     id="path4" />
  <path
     d="M 5,11.562528 H 9"
     id="path5" />
</svg>
